<svg width="951" height="917" viewBox="0 0 951 917" fill="none" xmlns="http://www.w3.org/2000/svg">
<path opacity="0.18" d="M911.342 832.298C871.634 885.869 803.352 912.255 736.782 916.338C670.213 920.421 604.185 904.916 539.414 889.01C481.494 874.732 418.15 855.371 357.832 858.37C314.128 860.511 272.393 876.217 227.804 876.046C153.27 875.789 93.1518 843.121 54.015 785.466C45.4795 772.837 38.1127 759.456 32.0059 745.488C31.9505 745.231 31.8437 744.989 31.6919 744.774C-16.4941 635.091 -10.6707 500.279 55.6135 399.248C77.6512 365.638 105.255 335.883 126.037 301.501C144.706 270.604 157.438 236.537 174.565 204.811C234.313 94.5568 351.123 19.826 474.814 3.43494C518.366 -2.51373 562.625 -0.725347 605.556 8.71778C719.398 34.2467 821.65 115.717 862.471 225.086C889.076 296.475 889.304 374.719 903.292 449.678C915.396 514.557 937.947 577.294 947.168 642.63C956.388 707.966 950.65 779.27 911.342 832.298Z" fill="#305DFE"/>
</svg>
